<svg width="255" height="65" viewBox="0 0 255 65" fill="none" xmlns="http://www.w3.org/2000/svg">
<path d="M31.5654 42.2982L22.4065 26.4559L0 65H18.3177L31.5654 42.2982Z" fill="white"/>
<path d="M31.5654 42.2982L22.4065 26.4559L0 65H18.3177L31.5654 42.2982Z" fill="white"/>
<path d="M22.9223 15.6789L51.5187 65L70 65L41.4799 15.6789L69.9997 15.6789V3.05979e-06L2.84124e-06 0L2.15589e-06 15.6789L22.9223 15.6789Z" fill="white"/>
<path d="M139 7.95653e-08V65H125V7.95653e-08H139Z" fill="white"/>
<path d="M168.482 39V28.7H186.982V52.5C186.982 64.7 187.4 65 175 65H162C149.6 65 149.582 64.7 149.582 52.5V12.2C149.582 0 149.582 7.95653e-08 161.982 7.95653e-08L174.582 1.03324e-06C186.982 7.95653e-08 186.982 0 186.982 12.2V18.3H173.682V10.5C173.682 9.96667 173.482 9.5 173.082 9.1C172.749 8.7 172.315 8.5 171.782 8.5H165.482C164.949 8.5 164.482 8.7 164.082 9.1C163.749 9.5 163.582 9.96667 163.582 10.5V54.1C163.582 54.6333 163.749 55.1 164.082 55.5C164.482 55.9 164.949 56.1 165.482 56.1H171.782C172.315 56.1 172.749 55.9 173.082 55.5C173.482 55.1 173.682 54.6333 173.682 54.1V39H168.482Z" fill="white"/>
<path d="M209 38.2V65H195V1.03324e-06H219.599C227.866 1.03324e-06 231.999 4.4 231.999 13.2V20.7C231.999 26.0333 230.099 29.4333 226.299 30.9C229.633 32.1 231 34.7333 231 39V65H217V40C217 38.6667 216.666 38.2 215.399 38.2H209ZM208.699 9.5V28.4H216.099C216.633 28.4 217.066 28.2 217.399 27.8C217.799 27.4 217.999 26.9333 217.999 26.4V11.5C217.999 10.9667 217.799 10.5 217.399 10.1C217.066 9.7 216.633 9.5 216.099 9.5H208.699Z" fill="white"/>
<path d="M254.988 1.03324e-06V65H240.988V1.03324e-06H254.988Z" fill="white"/>
<path d="M120 7.95653e-08L107.3 29.7L120 65H106L96.5 39.1H92V65H78V7.95653e-08H92V27.1H95.4L106.1 7.95653e-08H120Z" fill="white"/>
</svg>
