<svg width="177" height="65" viewBox="0 0 177 65" fill="none" xmlns="http://www.w3.org/2000/svg">
<path d="M61 0V65H47V0H61Z" fill="black"/>
<path d="M90.482 39V28.7H108.982V52.5C108.982 64.7 109.4 65 97 65H84C71.6 65 71.582 64.7 71.582 52.5V12.2C71.582 0 71.582 0 83.982 0L96.582 9.53674e-07C108.982 0 108.982 0 108.982 12.2V18.3H95.682V10.5C95.682 9.96667 95.482 9.5 95.082 9.1C94.7487 8.7 94.3154 8.5 93.782 8.5H87.482C86.9487 8.5 86.482 8.7 86.082 9.1C85.7487 9.5 85.582 9.96667 85.582 10.5V54.1C85.582 54.6333 85.7487 55.1 86.082 55.5C86.482 55.9 86.9487 56.1 87.482 56.1H93.782C94.3154 56.1 94.7487 55.9 95.082 55.5C95.482 55.1 95.682 54.6333 95.682 54.1V39H90.482Z" fill="black"/>
<path d="M131 38.2V65H117V9.53674e-07H141.599C149.866 9.53674e-07 153.999 4.4 153.999 13.2V20.7C153.999 26.0333 152.099 29.4333 148.299 30.9C151.633 32.1 153 34.7333 153 39V65H139V40C139 38.6667 138.666 38.2 137.399 38.2H131ZM130.699 9.5V28.4H138.099C138.633 28.4 139.066 28.2 139.399 27.8C139.799 27.4 139.999 26.9333 139.999 26.4V11.5C139.999 10.9667 139.799 10.5 139.399 10.1C139.066 9.7 138.633 9.5 138.099 9.5H130.699Z" fill="black"/>
<path d="M176.988 9.53674e-07V65H162.988V9.53674e-07H176.988Z" fill="black"/>
<path d="M42 0L29.3 29.7L42 65H28L18.5 39.1H14V65H0V0H14V27.1H17.4L28.1 0H42Z" fill="black"/>
</svg>
